<svg version="1.1" id="Layer_1" xmlns="http://www.w3.org/2000/svg" xmlns:xlink="http://www.w3.org/1999/xlink" x="0px" y="0px"
	 width="100%" viewBox="0 0 592 212" enable-background="new 0 0 592 212" xml:space="preserve">
<path fill="#11B2B9" opacity="1.000000" stroke="none" 
	d="
M117.000000,213.000000 
	C78.379974,213.000000 39.759949,213.000000 1.069961,213.000000 
	C1.069961,142.333359 1.069961,71.666687 1.069961,1.000000 
	C12.423399,1.000000 23.743042,1.000000 35.544601,1.411844 
	C36.683754,5.213972 37.013905,8.711772 38.083740,11.966429 
	C39.329098,15.755047 41.221943,19.330830 42.893387,23.464396 
	C42.952972,32.189159 42.952972,40.448505 42.952972,49.160870 
	C53.610413,49.160870 63.415504,49.154972 73.220589,49.162930 
	C79.787643,49.168262 79.801849,49.177067 79.802505,55.675396 
	C79.807320,103.495003 79.802330,151.314606 79.818886,199.134216 
	C79.819611,201.242157 79.999428,203.350037 80.110901,205.787689 
	C91.677887,205.787689 102.793571,205.787689 114.064209,206.111359 
	C115.146103,208.623352 116.073051,210.811676 117.000000,213.000000 
z"/>
<path fill="#2EBCC2" opacity="1.000000" stroke="none" 
	d="
M453.000000,1.000003 
	C499.596649,1.000000 546.193298,1.000000 593.000000,1.000000 
	C593.000000,51.354034 593.000000,101.708359 592.621094,152.497833 
	C576.376465,145.987762 560.520691,139.019775 544.633057,132.125046 
	C542.561768,131.226196 540.327026,130.703964 538.101074,129.542465 
	C538.005432,123.589027 538.119568,118.094971 537.910522,112.613228 
	C537.673279,106.392776 535.333252,103.900246 529.108032,103.362747 
	C525.143250,103.020409 521.123718,103.024719 517.145081,103.215317 
	C513.615662,103.384407 512.384094,101.890175 512.490234,98.533417 
	C512.626953,94.213043 512.721191,89.873413 512.466919,85.563705 
	C512.220032,81.378830 513.940186,79.961838 518.006042,80.110207 
	C524.271118,80.338821 530.550781,80.170395 537.434509,80.170395 
	C536.403137,74.370041 535.678711,69.291840 534.474243,64.330193 
	C534.218994,63.278694 532.212830,61.946835 531.008850,61.942234 
	C521.037048,61.904068 511.064178,62.147675 501.000427,61.950748 
	C500.254242,60.447781 499.788086,59.125786 498.914795,58.179619 
	C490.931915,49.530949 482.327026,41.388748 474.994354,32.225891 
	C467.054413,22.304193 460.281738,11.448399 453.000000,1.000003 
z"/>
<path fill="#19B5BC" opacity="1.000000" stroke="none" 
	d="
M261.000000,213.000000 
	C236.312439,213.000000 211.624878,213.000000 186.437775,212.632599 
	C182.316757,206.370209 178.766098,200.430069 175.046494,194.597687 
	C172.912994,191.252304 170.300018,188.204391 168.269241,184.803772 
	C165.235306,179.723358 162.669571,174.363617 159.642349,169.278854 
	C154.994843,161.472565 149.594757,154.070206 145.466644,146.008636 
	C138.377258,132.164215 132.191910,117.859245 125.258507,103.931068 
	C123.125618,99.646393 119.791451,95.959702 116.930717,91.535812 
	C116.829132,78.742722 116.953545,66.409882 116.694946,54.085083 
	C116.609093,49.993507 118.124596,48.969147 121.924332,49.094902 
	C129.247787,49.337273 136.584976,49.165066 143.916473,49.164829 
	C146.832809,49.164734 149.749130,49.164814 152.707123,49.164814 
	C152.707123,38.344673 152.707123,28.437037 152.707123,17.832764 
	C135.571579,17.832764 118.786194,17.832764 101.913452,17.476284 
	C100.550728,11.746535 99.275360,6.373268 98.000000,1.000000 
	C115.687561,1.000000 133.375122,1.000000 151.565887,1.388878 
	C153.190445,5.415820 154.223145,9.084059 155.448944,12.686591 
	C160.141052,26.476248 164.436752,40.425045 169.761673,53.967941 
	C174.595551,66.261986 180.449112,78.165138 186.103638,90.122147 
	C188.838852,95.905975 192.148712,101.418045 195.209290,107.476074 
	C192.108322,125.682381 188.996490,143.465759 185.850342,161.445251 
	C192.913269,161.445251 199.295044,161.445251 205.585678,161.445251 
	C208.282257,148.112854 208.282318,148.112289 220.229797,149.448639 
	C220.388321,149.466370 220.536835,149.573639 221.148544,149.835083 
	C221.584122,152.495575 221.879776,155.469421 222.622284,158.327179 
	C222.975510,159.686691 224.179825,160.825073 225.032776,162.418854 
	C225.251404,163.408646 225.278305,164.157501 225.643463,164.661026 
	C234.088181,176.306183 242.560852,187.931091 251.048676,199.544891 
	C254.340195,204.048645 257.681427,208.516052 261.000000,213.000000 
z"/>
<path fill="#27B9C0" opacity="1.000000" stroke="none" 
	d="
M538.168091,130.007278 
	C540.327026,130.703964 542.561768,131.226196 544.633057,132.125046 
	C560.520691,139.019775 576.376465,145.987762 592.621094,152.966492 
	C593.000000,172.928604 593.000000,192.857193 593.000000,213.000000 
	C572.312927,213.000000 551.625122,213.000000 530.342285,212.684875 
	C527.854919,211.092560 526.088196,209.552917 524.051086,208.578293 
	C500.613861,197.364822 478.737091,183.600052 457.928833,168.113297 
	C455.905151,166.607147 454.624390,164.102768 453.461304,161.979263 
	C461.399231,161.877289 468.877136,161.950150 476.347900,161.753357 
	C477.695038,161.717865 479.969574,160.804611 480.187378,159.903137 
	C481.488739,154.516846 482.312866,149.015259 483.428284,142.824280 
	C476.109619,142.824280 469.554565,142.824280 463.160767,142.824280 
	C463.160767,135.317429 463.160767,128.447845 463.160767,121.401054 
	C468.088135,121.401054 472.542023,121.401054 477.036652,121.735947 
	C478.024811,123.359383 478.738708,124.954918 479.959778,125.883804 
	C485.489746,130.090836 491.220276,134.034286 496.749207,138.242630 
	C498.382629,139.485886 499.592499,141.285645 500.558838,142.892334 
	C498.499695,143.046280 496.878143,143.138306 494.548126,143.270538 
	C495.749695,149.605881 496.877930,155.554565 498.020325,161.577942 
	C507.580170,161.577942 516.737854,162.045746 525.824219,161.441345 
	C534.267273,160.879730 537.554321,156.761200 537.920227,147.966019 
	C538.168945,141.986679 538.096741,135.994003 538.168091,130.007278 
z"/>
<path fill="#20B7BE" opacity="1.000000" stroke="none" 
	d="
M413.000000,213.000000 
	C385.645782,213.000000 358.291534,213.000000 330.380951,212.667053 
	C326.506775,208.671036 323.077332,205.102219 319.891266,201.327957 
	C308.439636,187.762314 296.994873,174.189255 285.717316,160.479309 
	C282.488861,156.554565 280.071777,151.959030 276.812500,148.064484 
	C275.272797,146.224640 272.623749,145.313187 270.390747,143.522797 
	C270.304230,140.489334 270.304230,137.914200 270.304230,135.008545 
	C275.914429,135.008545 280.726166,135.011383 285.537872,135.007996 
	C297.974274,134.999222 301.594147,131.387634 301.676697,118.951401 
	C301.756226,106.967064 301.855560,94.982857 302.279907,83.093979 
	C304.928772,86.495804 307.201263,89.833153 309.568573,93.101830 
	C313.664551,98.757393 317.819366,104.370384 322.029846,110.463898 
	C322.110168,127.755928 322.110168,144.585281 322.110168,161.539825 
	C329.364868,161.539825 335.744049,161.539825 343.008789,161.539825 
	C343.008789,155.828812 343.008789,150.414474 343.339264,145.087860 
	C346.334595,147.838394 349.000275,150.500336 351.664154,153.164124 
	C362.934662,164.434204 374.128418,175.782654 385.514496,186.934753 
	C389.732544,191.066116 394.542389,194.588699 398.828156,198.656693 
	C403.700531,203.281433 408.288452,208.205841 413.000000,213.000000 
z"/>
<path fill="#1DB6BD" opacity="1.000000" stroke="none" 
	d="
M195.198395,107.053146 
	C192.148712,101.418045 188.838852,95.905975 186.103638,90.122147 
	C180.449112,78.165138 174.595551,66.261986 169.761673,53.967941 
	C164.436752,40.425045 160.141052,26.476248 155.448944,12.686591 
	C154.223145,9.084059 153.190445,5.415820 152.034546,1.388878 
	C172.354233,1.000000 192.708450,1.000000 213.613525,1.373255 
	C215.944748,7.258601 217.316742,12.944646 219.577454,18.252148 
	C228.540985,39.296013 237.755783,60.233253 246.991302,81.159767 
	C247.510254,82.335617 249.047897,83.061874 250.213135,84.457008 
	C250.247360,103.610817 250.179855,122.305016 249.791824,140.883362 
	C246.499298,136.839508 243.588272,132.862885 240.518860,129.012543 
	C239.576675,127.830650 238.200836,126.994484 236.850922,125.641235 
	C232.740082,104.170563 228.801865,83.058655 224.938309,62.346970 
	C217.251328,62.346970 210.516739,62.346970 203.796478,62.346970 
	C200.886688,77.476555 198.042542,92.264854 195.198395,107.053146 
z"/>
<path fill="#24B8BF" opacity="1.000000" stroke="none" 
	d="
M321.949493,110.001228 
	C317.819366,104.370384 313.664551,98.757393 309.568573,93.101830 
	C307.201263,89.833153 304.928772,86.495804 302.181519,82.643723 
	C301.667694,78.962814 301.696075,75.819862 301.478088,72.694092 
	C301.159668,68.128265 299.541412,64.162277 294.810364,62.664051 
	C292.345703,61.883545 289.620209,61.926674 286.984680,61.178986 
	C285.790253,57.487572 284.787384,54.145287 283.429596,50.953987 
	C276.336029,34.281540 269.152344,17.647438 262.000000,1.000000 
	C283.020905,1.000000 304.041779,1.000000 325.613403,1.358333 
	C327.380096,4.974276 328.247955,8.417477 329.869568,11.458785 
	C339.043945,28.664917 348.328461,45.813904 357.796722,62.859444 
	C358.791809,64.650871 361.232941,65.639076 363.090210,67.461754 
	C363.119232,84.949043 363.061218,101.974510 362.670105,118.910973 
	C361.520508,118.272942 360.485687,117.889900 359.922180,117.148582 
	C355.509521,111.343391 351.232513,105.434898 346.803955,99.642128 
	C345.751678,98.265694 344.285553,97.205643 342.921631,95.539871 
	C342.833435,90.307846 342.833435,85.536018 342.833435,80.102188 
	C347.466095,80.102188 351.506317,80.102188 355.935669,80.102188 
	C354.446228,74.396088 353.309235,69.367783 351.728058,64.483276 
	C351.359528,63.344845 349.494965,61.958439 348.295380,61.936020 
	C337.810760,61.740093 327.319794,61.762741 316.833954,61.927715 
	C315.718079,61.945271 313.955963,63.068321 313.630157,64.054146 
	C311.937164,69.176628 310.612732,74.420937 308.984161,80.252228 
	C313.634064,80.252228 317.566833,80.252228 321.949493,80.252228 
	C321.949493,90.488831 321.949493,100.245033 321.949493,110.001228 
z"/>
<path fill="#2ABAC1" opacity="1.000000" stroke="none" 
	d="
M500.996460,142.830399 
	C499.592499,141.285645 498.382629,139.485886 496.749207,138.242630 
	C491.220276,134.034286 485.489746,130.090836 479.959778,125.883804 
	C478.738708,124.954918 478.024811,123.359383 477.455902,121.594101 
	C478.405792,115.579590 478.977112,110.041824 479.612732,103.880959 
	C473.325989,103.880959 468.252045,103.880959 462.682098,103.880959 
	C462.682098,97.222954 462.858948,91.094978 462.615234,84.983765 
	C462.470551,81.355087 463.511047,79.887634 467.361908,80.102089 
	C472.792419,80.404488 478.252380,80.178627 484.319611,80.178627 
	C483.093567,73.665756 482.006073,67.888725 480.908783,62.059654 
	C467.588593,62.059654 454.805206,62.059654 442.006836,61.674614 
	C440.602356,58.335205 439.604187,55.105453 437.753540,52.475578 
	C430.829041,42.635418 423.231720,33.248672 416.662201,23.185606 
	C412.115387,16.220888 408.842255,8.424671 405.000000,0.999999 
	C420.687561,1.000000 436.375122,1.000000 452.531342,1.000003 
	C460.281738,11.448399 467.054413,22.304193 474.994354,32.225891 
	C482.327026,41.388748 490.931915,49.530949 498.914795,58.179619 
	C499.788086,59.125786 500.254242,60.447781 500.738983,62.155495 
	C495.482544,64.486145 493.251801,68.498222 493.162231,73.449745 
	C492.940155,85.727882 492.915405,98.016251 493.162628,110.293442 
	C493.290497,116.642792 496.548767,119.528183 502.957489,119.798660 
	C506.602936,119.952522 510.262482,119.931145 513.910400,119.818169 
	C516.731323,119.730797 518.283813,120.593880 518.209167,123.735512 
	C518.087036,128.878067 518.116577,134.026917 518.209656,139.170807 
	C518.258545,141.869125 517.276001,143.136169 514.430359,143.023987 
	C509.956787,142.847641 505.474854,142.884064 500.996460,142.830399 
z"/>
<path fill="#15B4BB" opacity="1.000000" stroke="none" 
	d="
M117.007347,91.999191 
	C119.791451,95.959702 123.125618,99.646393 125.258507,103.931068 
	C132.191910,117.859245 138.377258,132.164215 145.466644,146.008636 
	C149.594757,154.070206 154.994843,161.472565 159.642349,169.278854 
	C162.669571,174.363617 165.235306,179.723358 168.269241,184.803772 
	C170.300018,188.204391 172.912994,191.252304 175.046494,194.597687 
	C178.766098,200.430069 182.316757,206.370209 185.969116,212.632599 
	C163.312439,213.000000 140.624878,213.000000 117.468658,213.000000 
	C116.073051,210.811676 115.146103,208.623352 114.042908,205.738220 
	C112.429024,204.149841 110.946983,203.320938 109.569305,202.344757 
	C108.646584,201.690933 107.871964,200.828094 107.031067,200.058792 
	C107.840118,199.256332 108.595818,198.385742 109.486809,197.687912 
	C109.803513,197.439865 110.461647,197.529907 110.942451,197.604324 
	C115.936005,198.377090 117.313599,195.964233 116.842880,191.377563 
	C116.558426,188.605804 116.910645,185.768692 117.441910,183.031616 
	C121.894119,183.117126 125.886398,183.247482 129.864807,183.068909 
	C130.912582,183.021881 131.917480,182.019760 132.942078,181.456223 
	C131.937195,180.692505 130.972382,179.339737 129.920425,179.268188 
	C125.618767,178.975647 121.290504,179.074295 116.905487,178.562286 
	C116.895081,149.396851 116.951210,120.698021 117.007347,91.999191 
z"/>
<path fill="#1CB6BD" opacity="1.000000" stroke="none" 
	d="
M237.023575,126.000000 
	C238.200836,126.994484 239.576675,127.830650 240.518860,129.012543 
	C243.588272,132.862885 246.499298,136.839508 249.895721,141.342346 
	C250.320160,148.474243 250.320160,155.031342 250.320160,161.839020 
	C256.639374,161.839020 261.949615,161.853210 267.259583,161.823669 
	C268.054871,161.819244 268.848999,161.609833 270.477295,161.375046 
	C270.477295,155.511703 270.477295,149.746414 270.477295,143.981110 
	C272.623749,145.313187 275.272797,146.224640 276.812500,148.064484 
	C280.071777,151.959030 282.488861,156.554565 285.717316,160.479309 
	C296.994873,174.189255 308.439636,187.762314 319.891266,201.327957 
	C323.077332,205.102219 326.506775,208.671036 329.912292,212.667053 
	C307.312439,213.000000 284.624878,213.000000 261.468658,213.000000 
	C257.681427,208.516052 254.340195,204.048645 251.048676,199.544891 
	C242.560852,187.931091 234.088181,176.306183 225.643463,164.661026 
	C225.278305,164.157501 225.251404,163.408646 225.494324,162.334717 
	C231.502869,161.895340 237.084015,161.895340 242.818497,161.895340 
	C240.801895,149.403961 238.912735,137.701981 237.023575,126.000000 
z"/>
<path fill="#27B9C0" opacity="1.000000" stroke="none" 
	d="
M363.003174,66.999939 
	C361.232941,65.639076 358.791809,64.650871 357.796722,62.859444 
	C348.328461,45.813904 339.043945,28.664917 329.869568,11.458785 
	C328.247955,8.417477 327.380096,4.974276 326.082062,1.358333 
	C342.020905,1.000000 358.041779,1.000000 374.534424,1.403527 
	C379.053314,10.608323 382.285034,19.914101 387.343140,28.089922 
	C394.522949,39.695095 403.047241,50.468498 410.535004,61.675499 
	C404.652405,61.753677 399.231781,61.753677 393.053650,61.753677 
	C393.053650,80.078789 393.053650,97.539200 392.719055,114.913689 
	C389.423492,112.883865 386.462555,110.939957 383.411011,108.535965 
	C383.320404,92.752754 383.320404,77.429642 383.320404,62.222145 
	C376.080200,62.222145 369.865021,62.222145 363.596680,62.222145 
	C363.366760,64.073227 363.184967,65.536583 363.003174,66.999939 
z"/>
<path fill="#23B8BF" opacity="1.000000" stroke="none" 
	d="
M343.009796,96.000061 
	C344.285553,97.205643 345.751678,98.265694 346.803955,99.642128 
	C351.232513,105.434898 355.509521,111.343391 359.922180,117.148582 
	C360.485687,117.889900 361.520508,118.272942 362.759216,119.372437 
	C363.181458,133.798904 363.181458,147.674896 363.181458,161.560333 
	C370.357361,161.560333 376.456940,161.560333 383.504089,161.560333 
	C383.504089,155.535690 383.504089,149.774719 383.847870,144.025360 
	C387.145264,145.691513 390.098877,147.346054 393.147278,149.455170 
	C393.242096,153.794647 393.242096,157.679535 393.242096,162.067780 
	C398.108521,162.067780 402.054047,162.067780 406.089478,162.393402 
	C407.287445,164.147125 408.190186,165.816284 409.537384,166.963638 
	C417.466888,173.716812 425.322632,180.576828 433.545502,186.959930 
	C442.683716,194.053574 452.230988,200.618164 461.500488,207.546402 
	C463.548340,209.077026 465.177856,211.167374 467.000000,213.000000 
	C449.312439,213.000000 431.624878,213.000000 413.468658,213.000000 
	C408.288452,208.205841 403.700531,203.281433 398.828156,198.656693 
	C394.542389,194.588699 389.732544,191.066116 385.514496,186.934753 
	C374.128418,175.782654 362.934662,164.434204 351.664154,153.164124 
	C349.000275,150.500336 346.334595,147.838394 343.249634,144.626495 
	C342.889587,128.051620 342.949707,112.025841 343.009796,96.000061 
z"/>
<path fill="#20B7BE" opacity="1.000000" stroke="none" 
	d="
M261.531342,1.000000 
	C269.152344,17.647438 276.336029,34.281540 283.429596,50.953987 
	C284.787384,54.145287 285.790253,57.487572 286.574615,61.256706 
	C274.483124,61.753208 262.773865,61.753208 250.111420,61.753208 
	C250.111420,69.545006 250.111420,76.771194 250.111420,83.997391 
	C249.047897,83.061874 247.510254,82.335617 246.991302,81.159767 
	C237.755783,60.233253 228.540985,39.296013 219.577454,18.252148 
	C217.316742,12.944646 215.944748,7.258601 214.082184,1.373255 
	C229.687561,1.000000 245.375122,1.000000 261.531342,1.000000 
z"/>
<path fill="#24B8BF" opacity="1.000000" stroke="none" 
	d="
M467.468658,213.000000 
	C465.177856,211.167374 463.548340,209.077026 461.500488,207.546402 
	C452.230988,200.618164 442.683716,194.053574 433.545502,186.959930 
	C425.322632,180.576828 417.466888,173.716812 409.537384,166.963638 
	C408.190186,165.816284 407.287445,164.147125 406.552216,162.312927 
	C410.725067,161.888885 414.526306,161.926331 418.324646,161.837646 
	C422.259949,161.745773 427.017731,162.804092 429.859924,160.960617 
	C432.057465,159.535248 431.850922,154.407303 432.723114,150.927917 
	C432.802795,150.609894 432.954803,150.309998 433.427521,150.035492 
	C436.471588,151.380661 439.161407,152.692001 441.917236,154.442474 
	C441.983276,157.077484 441.983276,159.273407 441.983276,162.061752 
	C446.214996,162.061752 449.606903,162.061752 452.998779,162.061752 
	C454.624390,164.102768 455.905151,166.607147 457.928833,168.113297 
	C478.737091,183.600052 500.613861,197.364822 524.051086,208.578293 
	C526.088196,209.552917 527.854919,211.092560 529.873657,212.684875 
	C509.312439,213.000000 488.624878,213.000000 467.468658,213.000000 
z"/>
<path fill="#29BAC1" opacity="1.000000" stroke="none" 
	d="
M410.997009,61.597313 
	C403.047241,50.468498 394.522949,39.695095 387.343140,28.089922 
	C382.285034,19.914101 379.053314,10.608323 375.003052,1.403527 
	C384.687561,1.000000 394.375122,1.000000 404.531342,0.999999 
	C408.842255,8.424671 412.115387,16.220888 416.662201,23.185606 
	C423.231720,33.248672 430.829041,42.635418 437.753540,52.475578 
	C439.604187,55.105453 440.602356,58.335205 442.009125,62.139328 
	C441.968170,73.326714 441.909973,83.664337 441.500885,93.965202 
	C439.595001,92.609406 437.856232,91.453468 436.515991,89.943771 
	C429.873291,82.461136 423.356750,74.866547 416.725800,67.373314 
	C416.122589,66.691650 415.022919,66.449333 414.085693,65.604080 
	C413.010742,64.002556 412.003876,62.799934 410.997009,61.597313 
z"/>
<path fill="#15B4BB" opacity="1.000000" stroke="none" 
	d="
M97.531342,1.000000 
	C99.275360,6.373268 100.550728,11.746535 101.448013,17.535686 
	C81.859390,17.951571 62.648846,17.951571 43.346668,17.951571 
	C43.131844,20.065763 42.982822,21.532370 42.833801,22.998976 
	C41.221943,19.330830 39.329098,15.755047 38.083740,11.966429 
	C37.013905,8.711772 36.683754,5.213972 36.013260,1.411844 
	C56.354229,1.000000 76.708458,1.000000 97.531342,1.000000 
z"/>
<path fill="#393F47" opacity="1.000000" stroke="none" 
	d="
M42.893387,23.464396 
	C42.982822,21.532370 43.131844,20.065763 43.346668,17.951571 
	C62.648846,17.951571 81.859390,17.951571 101.535370,17.892166 
	C118.786194,17.832764 135.571579,17.832764 152.707123,17.832764 
	C152.707123,28.437037 152.707123,38.344673 152.707123,49.164814 
	C149.749130,49.164814 146.832809,49.164734 143.916473,49.164829 
	C136.584976,49.165066 129.247787,49.337273 121.924332,49.094902 
	C118.124596,48.969147 116.609093,49.993507 116.694946,54.085083 
	C116.953545,66.409882 116.829132,78.742722 116.930717,91.535812 
	C116.951210,120.698021 116.895081,149.396851 116.925644,178.544785 
	C117.012337,178.993881 117.052711,178.958969 116.592461,179.046417 
	C112.856606,179.161407 109.571907,179.065002 106.311852,179.304306 
	C105.504845,179.363541 104.777794,180.511887 104.013992,181.159592 
	C104.761444,181.804504 105.482658,182.966354 106.260834,183.005859 
	C109.852623,183.188187 113.460258,183.058044 117.040482,183.020569 
	C117.018745,183.001251 116.976791,182.960953 116.976791,182.960953 
	C116.910645,185.768692 116.558426,188.605804 116.842880,191.377563 
	C117.313599,195.964233 115.936005,198.377090 110.942451,197.604324 
	C110.461647,197.529907 109.803513,197.439865 109.486809,197.687912 
	C108.595818,198.385742 107.840118,199.256332 107.031067,200.058792 
	C107.871964,200.828094 108.646584,201.690933 109.569305,202.344757 
	C110.946983,203.320938 112.429024,204.149841 113.887955,205.414551 
	C102.793571,205.787689 91.677887,205.787689 80.110901,205.787689 
	C79.999428,203.350037 79.819611,201.242157 79.818886,199.134216 
	C79.802330,151.314606 79.807320,103.495003 79.802505,55.675396 
	C79.801849,49.177067 79.787643,49.168262 73.220589,49.162930 
	C63.415504,49.154972 53.610413,49.160870 42.952972,49.160870 
	C42.952972,40.448505 42.952972,32.189159 42.893387,23.464396 
z"/>
<path fill="#ECEDED" opacity="1.000000" stroke="none" 
	d="
M500.558838,142.892334 
	C505.474854,142.884064 509.956787,142.847641 514.430359,143.023987 
	C517.276001,143.136169 518.258545,141.869125 518.209656,139.170807 
	C518.116577,134.026917 518.087036,128.878067 518.209167,123.735512 
	C518.283813,120.593880 516.731323,119.730797 513.910400,119.818169 
	C510.262482,119.931145 506.602936,119.952522 502.957489,119.798660 
	C496.548767,119.528183 493.290497,116.642792 493.162628,110.293442 
	C492.915405,98.016251 492.940155,85.727882 493.162231,73.449745 
	C493.251801,68.498222 495.482544,64.486145 500.830170,62.510784 
	C511.064178,62.147675 521.037048,61.904068 531.008850,61.942234 
	C532.212830,61.946835 534.218994,63.278694 534.474243,64.330193 
	C535.678711,69.291840 536.403137,74.370041 537.434509,80.170395 
	C530.550781,80.170395 524.271118,80.338821 518.006042,80.110207 
	C513.940186,79.961838 512.220032,81.378830 512.466919,85.563705 
	C512.721191,89.873413 512.626953,94.213043 512.490234,98.533417 
	C512.384094,101.890175 513.615662,103.384407 517.145081,103.215317 
	C521.123718,103.024719 525.143250,103.020409 529.108032,103.362747 
	C535.333252,103.900246 537.673279,106.392776 537.910522,112.613228 
	C538.119568,118.094971 538.005432,123.589027 538.101074,129.542465 
	C538.096741,135.994003 538.168945,141.986679 537.920227,147.966019 
	C537.554321,156.761200 534.267273,160.879730 525.824219,161.441345 
	C516.737854,162.045746 507.580170,161.577942 498.020325,161.577942 
	C496.877930,155.554565 495.749695,149.605881 494.548126,143.270538 
	C496.878143,143.138306 498.499695,143.046280 500.558838,142.892334 
z"/>
<path fill="#ECEDED" opacity="1.000000" stroke="none" 
	d="
M236.850922,125.641235 
	C238.912735,137.701981 240.801895,149.403961 242.818497,161.895340 
	C237.084015,161.895340 231.502869,161.895340 225.460159,161.979477 
	C224.179825,160.825073 222.975510,159.686691 222.622284,158.327179 
	C221.879776,155.469421 221.584122,152.495575 221.148544,149.835083 
	C220.536835,149.573639 220.388321,149.466370 220.229797,149.448639 
	C208.282318,148.112289 208.282257,148.112854 205.585678,161.445251 
	C199.295044,161.445251 192.913269,161.445251 185.850342,161.445251 
	C188.996490,143.465759 192.108322,125.682381 195.209290,107.476074 
	C198.042542,92.264854 200.886688,77.476555 203.796478,62.346970 
	C210.516739,62.346970 217.251328,62.346970 224.938309,62.346970 
	C228.801865,83.058655 232.740082,104.170563 236.850922,125.641235 
M212.302841,113.766968 
	C211.522888,120.097954 210.742935,126.428932 209.968201,132.717560 
	C213.399979,132.717560 216.084671,132.717560 219.016968,132.717560 
	C217.615494,122.040642 216.279648,111.863754 214.943817,101.686867 
	C214.664307,101.682640 214.384796,101.678413 214.105286,101.674194 
	C213.558487,105.415619 213.011673,109.157036 212.302841,113.766968 
z"/>
<path fill="#ECEDED" opacity="1.000000" stroke="none" 
	d="
M441.851746,94.001961 
	C441.909973,83.664337 441.968170,73.326714 442.024109,62.524368 
	C454.805206,62.059654 467.588593,62.059654 480.908783,62.059654 
	C482.006073,67.888725 483.093567,73.665756 484.319611,80.178627 
	C478.252380,80.178627 472.792419,80.404488 467.361908,80.102089 
	C463.511047,79.887634 462.470551,81.355087 462.615234,84.983765 
	C462.858948,91.094978 462.682098,97.222954 462.682098,103.880959 
	C468.252045,103.880959 473.325989,103.880959 479.612732,103.880959 
	C478.977112,110.041824 478.405792,115.579590 477.415192,121.259209 
	C472.542023,121.401054 468.088135,121.401054 463.160767,121.401054 
	C463.160767,128.447845 463.160767,135.317429 463.160767,142.824280 
	C469.554565,142.824280 476.109619,142.824280 483.428284,142.824280 
	C482.312866,149.015259 481.488739,154.516846 480.187378,159.903137 
	C479.969574,160.804611 477.695038,161.717865 476.347900,161.753357 
	C468.877136,161.950150 461.399231,161.877289 453.461304,161.979263 
	C449.606903,162.061752 446.214996,162.061752 441.983276,162.061752 
	C441.983276,159.273407 441.983276,157.077484 441.986450,153.978058 
	C441.943665,133.383667 441.897705,113.692818 441.851746,94.001961 
z"/>
<path fill="#E9EDED" opacity="1.000000" stroke="none" 
	d="
M250.213135,84.457001 
	C250.111420,76.771194 250.111420,69.545006 250.111420,61.753208 
	C262.773865,61.753208 274.483124,61.753208 286.602478,61.675491 
	C289.620209,61.926674 292.345703,61.883545 294.810364,62.664051 
	C299.541412,64.162277 301.159668,68.128265 301.478088,72.694092 
	C301.696075,75.819862 301.667694,78.962814 301.847839,82.548340 
	C301.855560,94.982857 301.756226,106.967064 301.676697,118.951401 
	C301.594147,131.387634 297.974274,134.999222 285.537872,135.007996 
	C280.726166,135.011383 275.914429,135.008545 270.304230,135.008545 
	C270.304230,137.914200 270.304230,140.489334 270.390747,143.522797 
	C270.477295,149.746414 270.477295,155.511703 270.477295,161.375046 
	C268.848999,161.609833 268.054871,161.819244 267.259583,161.823669 
	C261.949615,161.853210 256.639374,161.839020 250.320160,161.839020 
	C250.320160,155.031342 250.320160,148.474243 250.216263,141.458176 
	C250.179855,122.305016 250.247360,103.610817 250.213135,84.457001 
M270.214203,99.499207 
	C270.214203,105.615700 270.214203,111.732201 270.214203,117.965088 
	C274.474457,117.965088 278.125610,117.965088 282.086090,117.965088 
	C282.086090,105.745010 282.160492,94.098732 281.965088,82.456978 
	C281.946625,81.356323 280.353333,79.513054 279.285034,79.347870 
	C276.444672,78.908661 273.491577,79.198654 270.880310,79.198654 
	C270.503693,80.384750 270.319611,80.697662 270.317047,81.012039 
	C270.269897,86.841232 270.244354,92.670609 270.214203,99.499207 
z"/>
<path fill="#E9EDED" opacity="1.000000" stroke="none" 
	d="
M342.921631,95.539864 
	C342.949707,112.025841 342.889587,128.051620 342.919128,144.538773 
	C343.008789,150.414474 343.008789,155.828812 343.008789,161.539825 
	C335.744049,161.539825 329.364868,161.539825 322.110168,161.539825 
	C322.110168,144.585281 322.110168,127.755928 322.029846,110.463898 
	C321.949493,100.245033 321.949493,90.488831 321.949493,80.252228 
	C317.566833,80.252228 313.634064,80.252228 308.984161,80.252228 
	C310.612732,74.420937 311.937164,69.176628 313.630157,64.054146 
	C313.955963,63.068321 315.718079,61.945271 316.833954,61.927715 
	C327.319794,61.762741 337.810760,61.740093 348.295380,61.936020 
	C349.494965,61.958439 351.359528,63.344845 351.728058,64.483276 
	C353.309235,69.367783 354.446228,74.396088 355.935669,80.102188 
	C351.506317,80.102188 347.466095,80.102188 342.833435,80.102188 
	C342.833435,85.536018 342.833435,90.307846 342.921631,95.539864 
z"/>
<path fill="#EAEDED" opacity="1.000000" stroke="none" 
	d="
M383.504089,144.013748 
	C383.504089,149.774719 383.504089,155.535690 383.504089,161.560333 
	C376.456940,161.560333 370.357361,161.560333 363.181458,161.560333 
	C363.181458,147.674896 363.181458,133.798904 363.092346,119.461449 
	C363.061218,101.974510 363.119232,84.949043 363.090210,67.461754 
	C363.184967,65.536583 363.366760,64.073227 363.596680,62.222145 
	C369.865021,62.222145 376.080200,62.222145 383.320404,62.222145 
	C383.320404,77.429642 383.320404,92.752754 383.324402,108.997704 
	C383.386993,121.284279 383.445526,132.649017 383.504089,144.013748 
z"/>
<path fill="#393F47" opacity="1.000000" stroke="none" 
	d="
M116.992188,179.011383 
	C121.290504,179.074295 125.618767,178.975647 129.920425,179.268188 
	C130.972382,179.339737 131.937195,180.692505 132.942078,181.456223 
	C131.917480,182.019760 130.912582,183.021881 129.864807,183.068909 
	C125.886398,183.247482 121.894119,183.117126 117.441910,183.031616 
	C116.976791,182.960953 117.018745,183.001251 116.841103,182.640656 
	C116.793213,181.173019 116.922966,180.065994 117.052719,178.958969 
	C117.052711,178.958969 117.012337,178.993881 116.992188,179.011383 
z"/>
<path fill="#E9EDED" opacity="1.000000" stroke="none" 
	d="
M410.535004,61.675495 
	C412.003876,62.799934 413.010742,64.002556 414.020691,66.068604 
	C414.023804,92.122452 414.023804,117.312866 414.023804,143.055176 
	C420.934784,143.055176 427.309204,143.055176 433.813293,143.055176 
	C433.526489,145.747421 433.299866,147.874542 433.073242,150.001678 
	C432.954803,150.309998 432.802795,150.609894 432.723114,150.927917 
	C431.850922,154.407303 432.057465,159.535248 429.859924,160.960617 
	C427.017731,162.804092 422.259949,161.745773 418.324646,161.837646 
	C414.526306,161.926331 410.725067,161.888885 406.462341,161.987305 
	C402.054047,162.067780 398.108521,162.067780 393.242096,162.067780 
	C393.242096,157.679535 393.242096,153.794647 393.243225,148.994720 
	C393.180786,137.052994 393.117218,126.026299 393.053650,114.999603 
	C393.053650,97.539200 393.053650,80.078789 393.053650,61.753677 
	C399.231781,61.753677 404.652405,61.753677 410.535004,61.675495 
z"/>
<path fill="#24B8BF" opacity="1.000000" stroke="none" 
	d="
M392.719055,114.913689 
	C393.117218,126.026299 393.180786,137.052994 393.148438,148.540131 
	C390.098877,147.346054 387.145264,145.691513 383.847870,144.025360 
	C383.445526,132.649017 383.386993,121.284279 383.415009,109.457794 
	C386.462555,110.939957 389.423492,112.883865 392.719055,114.913689 
z"/>
<path fill="#27B9C0" opacity="1.000000" stroke="none" 
	d="
M433.427521,150.035492 
	C433.299866,147.874542 433.526489,145.747421 433.813293,143.055176 
	C427.309204,143.055176 420.934784,143.055176 414.023804,143.055176 
	C414.023804,117.312866 414.023804,92.122452 414.088806,66.467514 
	C415.022919,66.449333 416.122589,66.691650 416.725800,67.373314 
	C423.356750,74.866547 429.873291,82.461136 436.515991,89.943771 
	C437.856232,91.453468 439.595001,92.609406 441.500916,93.965202 
	C441.897705,113.692818 441.943665,133.383667 441.920410,153.538940 
	C439.161407,152.692001 436.471588,151.380661 433.427521,150.035492 
z"/>
<path fill="#11B2B9" opacity="1.000000" stroke="none" 
	d="
M116.592468,179.046417 
	C116.922966,180.065994 116.793213,181.173019 116.862839,182.659973 
	C113.460258,183.058044 109.852623,183.188187 106.260834,183.005859 
	C105.482658,182.966354 104.761444,181.804504 104.013992,181.159592 
	C104.777794,180.511887 105.504845,179.363541 106.311852,179.304306 
	C109.571907,179.065002 112.856606,179.161407 116.592468,179.046417 
z"/>
<path fill="#27B9C0" opacity="1.000000" stroke="none" 
	d="
M212.383850,113.332718 
	C213.011673,109.157036 213.558487,105.415619 214.105286,101.674194 
	C214.384796,101.678413 214.664307,101.682640 214.943817,101.686867 
	C216.279648,111.863754 217.615494,122.040642 219.016968,132.717560 
	C216.084671,132.717560 213.399979,132.717560 209.968201,132.717560 
	C210.742935,126.428932 211.522888,120.097954 212.383850,113.332718 
z"/>
<path fill="#27B9C0" opacity="1.000000" stroke="none" 
	d="
M270.214233,98.999573 
	C270.244354,92.670609 270.269897,86.841232 270.317047,81.012039 
	C270.319611,80.697662 270.503693,80.384750 270.880310,79.198654 
	C273.491577,79.198654 276.444672,78.908661 279.285034,79.347870 
	C280.353333,79.513054 281.946625,81.356323 281.965088,82.456978 
	C282.160492,94.098732 282.086090,105.745010 282.086090,117.965088 
	C278.125610,117.965088 274.474457,117.965088 270.214203,117.965088 
	C270.214203,111.732201 270.214203,105.615700 270.214233,98.999573 
z"/>
</svg>